<?xml version="1.0" encoding="utf-8"?>
<!-- Generator: Adobe Illustrator 17.0.0, SVG Export Plug-In . SVG Version: 6.00 Build 0)  -->
<!DOCTYPE svg PUBLIC "-//W3C//DTD SVG 1.1//EN" "http://www.w3.org/Graphics/SVG/1.1/DTD/svg11.dtd">
<svg version="1.1" id="svg1881" xmlns:svg="http://www.w3.org/2000/svg"
	 xmlns="http://www.w3.org/2000/svg" xmlns:xlink="http://www.w3.org/1999/xlink" x="0px" y="0px" width="1000px" height="500px"
	 viewBox="0 0 1000 500" enable-background="new 0 0 1000 500" xml:space="preserve">
<path id="_47408984" fill="#FFFFFF" d="M121.562,331.898c9.851,1.29,19.806,2.136,29.598,3.136l2.837,11.962
	c-16.371-1.025-33.161-1.265-49.617-1.265c-15.67,0-31.648,0.179-47.293,1.265l2.256-11.936c8.237-1.051,16.491-1.752,24.779-3.076
	c0.752-14.44,0.88-59.375,0.88-79.813v-9.373c0-6.964-0.128-44.012-0.88-55.829c-8.228-1.717-16.79-2.076-25.103-2.828
	l-1.692-11.638l58.657-0.213c25.744,0,48.139,2.051,60.408,7.058c22.634,9.433,25.291,25.317,25.291,32.246
	c0,41.175-40.364,59.956-75.506,64.843l1.47-12.842c21.284-5.306,36.809-17.183,36.809-43.465c0-13.175-6.485-23.668-17.149-28.974
	c-6.306-3.101-16.345-4.52-25.778-4.819c-0.692,10.732-0.871,39.219-0.871,57.119v9.98
	C120.656,271.763,120.835,318.996,121.562,331.898z M290.902,332.017c8.108,1.444,16.397,2.196,24.471,3.016l2.871,12.116
	c-16.704-1.598-34.459-1.418-51.095-1.418c-13.714,0-27.547,0.419-41.115,1.265l2.29-12.116c8.168-0.418,16.516-1.572,24.599-2.956
	c0.846-13.355,1.085-52.386,1.085-73.789v-13.927c0-7.169-0.24-44.815-0.966-57.025c-8.203-1.239-16.311-2.17-24.446-3.042
	l-2.837-12.184c16.73,1.811,34.904,1.512,51.514,1.512c13.534,0,27.581,0.026,41.09-1.538l-2.991,12.21
	c-8.168,0.871-16.363,2.23-24.505,3.281c-0.598,8.262-0.872,32.135-0.872,58.024v14.56
	C289.996,288.065,290.27,322.431,290.902,332.017z M461.175,306.607c-12.594-14.893-23.36-28.547-29.504-35.844
	c-8.382,11.339-28.999,43.713-38.287,61.673c5.793,1.085,11.577,2.025,17.456,2.623l1.658,11.603h-3.948
	c-3.768,0-23.933-0.932-37.467-0.932c-10.313,0-20.378,0.538-30.717,1.359l4.007-12.03c5.246-0.752,10.971-1.299,15.884-3.162
	c10.074-6.784,50.608-60.502,61.28-74.182c-8.194-10.492-19.225-24.958-29.658-38.407c-10.698-13.679-20.652-26.188-25.983-31.982
	c-5.4-1.658-11.065-2.375-16.55-3.435l-1.717-12.176c12.996,2.17,27.367,1.751,40.244,1.751c14.799,0,29.692-0.547,44.49-1.179
	l-3.469,11.851c-5.784,0.632-11.578,1.35-17.328,2.469c6.51,10.458,23.745,35.895,31.281,45.994
	c8.023-10.877,24.087-33.938,31.084-46.088l-4.161-0.846c-3.503-0.632-6.963-1.17-10.339-1.683l-2.324-11.877
	c12.33,1.025,24.779,1.359,37.254,1.359c9.467,0,18.934-0.547,28.401-1.359l-1.119,11.603c-5.58,1.444-11.15,2.469-16.824,3.862
	l-1.922,1.922c-8.263,7.724-15.739,16.405-23.181,24.813c-10.911,12.355-22.096,25.376-27.188,31.409
	c26.163,35.809,51.788,72.217,78.642,107.394l-19.08,3.768C493.396,342.749,476.341,324.208,461.175,306.607L461.175,306.607z
	 M677.115,332.257c-7.169-20.891-13.534-42.739-22.395-63.032c-10.424,0.214-39.304,1.538-49.796,2.717
	c-2.709,8.561-12.33,42.799-15.252,60.315c6.366,1.478,12.962,2.051,19.447,2.777l2.29,11.962
	c-14.021-0.846-28.213-1.265-42.175-1.265c-10.518,0-21.07,0.419-31.494,1.359l1.683-12.056c7.117-0.726,14.081-1.692,21.07-3.136
	c9.254-18.242,48.173-122.928,56.547-145.382c-5.81-1.145-11.603-1.743-17.422-2.444l-0.479-11.868
	c12.056,0.812,24.351,1.265,36.502,1.265c15.525,0,31.255-0.179,46.635-1.265l-1.726,11.868c-5.545,0.641-11.15,1.299-16.602,2.538
	c4.187,13.474,15.517,46.028,23.719,68.423c6.417,17.781,20.404,55.82,31.136,76.865c7.203,1.41,14.346,2.316,21.583,3.256
	l1.751,12.261c-14.201-2.375-31.443-1.683-45.55-1.683c-14.679,0-29.751,0.179-44.431,1.359l2.837-12.116
	C662.436,334.307,669.758,333.675,677.115,332.257L677.115,332.257z M784.28,187.182c-8.237-1.205-16.79-1.811-25.086-2.503
	l-1.658-11.757l57.153-0.239c22.181,0,53.291,0.239,70.141,6.929c13.474,5.34,22.454,15.312,22.454,30.119
	c0,15.97-16.755,35.237-34.271,45.994c16.67,28.18,48.532,72.345,69.901,94.979l-20.344,2.743
	c-16.969-7.809-69.115-66.919-84.102-85.033c-6.511,0.487-13.201,1.025-17.661,1.179v2.768c0,14.201,0.393,46.601,1.025,59.836
	c8.023,1.324,16.277,2.111,24.42,2.837l2.29,12.056c-14.799-1.205-30.084-1.359-44.883-1.359c-15.311,0-31.195,0-46.447,1.359
	l2.256-12.116c8.263-0.666,16.704-1.393,24.745-2.956c0.726-11.732,1-52.36,1-75.088v-14.406
	C785.211,234.561,784.938,197.307,784.28,187.182L784.28,187.182z M630.822,198.153c-6.818,18.806-16.371,44.764-20.293,56.154
	l39.791,0.726C645.407,240.354,636.059,213.943,630.822,198.153z M844.919,251.111c9.501-3.495,24.659-13.5,24.659-34.75
	c0-11.996-10.552-29.034-47.772-30.025c-0.607,13.654-1,50.01-1,65.228v3.768C828.283,255.118,836.571,254.187,844.919,251.111z"/>
</svg>
