<?xml version="1.0" encoding="UTF-8" standalone="no"?>
<!-- Generator: Adobe Illustrator 24.3.0, SVG Export Plug-In . SVG Version: 6.00 Build 0)  -->

<svg version="1.1" width="1000" height="366.29065" xml:space="preserve" viewBox="0 0 1000 366.29065" id="svg1225"
  xmlns="http://www.w3.org/2000/svg"
  xmlns:svg="http://www.w3.org/2000/svg">
  <defs id="defs985">
    <linearGradient id="SVGID_1_" gradientUnits="userSpaceOnUse" x1="614.57709" y1="488.40689" x2="940.79321" y2="99.637703" gradientTransform="matrix(0.73730001,0,0,0.73730001,-2.65428,0)">
      <stop offset="0.28" style="stop-color:#FA1660" id="stop949" />
      <stop offset="0.78" style="stop-color:#FF7D17" id="stop951" />
    </linearGradient>
  </defs>
  <style type="text/css" id="style947">
	.st0{fill:url(#SVGID_1_);}
	.st1{fill:#241C32;}
  </style>
  <path d="M 769.9624,139.71835 H 625.52533 C 623.60835,139.71835 622.72359,138.75986 622.20748,136.91661 L 576.86353,0 532.47807,136.91661 C 532.03569,138.83359 531.0772,139.71835 529.16022,139.71835 H 384.72315 L 501.36401,224.72904 C 502.76488,225.68753 504.16575,225.68753 505.64035,224.72904 537.7129,204.89567 566.54133,190.73951 626.48382,175.62486 571.70243,218.09334 517.87953,266.23903 473.49407,321.97891 472.0932,323.89589 471.57709,324.33827 470.69233,327.14001 L 457.93704,366.29064 574.5779,281.79606 C 576.49488,280.39519 577.37964,280.39519 579.29662,281.79606 L 695.93748,366.29064 651.55202,228.41554 C 651.10964,226.49856 651.55202,225.6138 652.95289,224.65531 Z" id="path954" style="fill:url(#SVGID_1_);stroke-width:1" />
  <path fill="#FFFFFF" d="M 849.29588,102.92708 H 888.44651 C 912.04011,102.92708 927.15476,115.16626 927.15476,136.47423 927.15476,159.62545 912.04011,174.7401 888.44651,174.7401 H 849.29588 Z M 916.83256,221.41119 C 957.45779,216.25009 990.93121,181.30207 990.93121,136.91661 990.93121,79.333481 951.78058,47.703311 888.52024,47.703311 H 786.55165 V 337.60967 H 849.36961 V 221.41119 L 927.30222,337.53594 H 1000 Z" id="path956" />
  <path fill="#FFFFFF" d="M 281.79606,104.77033 V 337.53594 H 345.57251 V 104.77033 H 409.27524 V 47.703311 H 218.09334 V 104.77033 Z" id="polygon958" />
  <path fill="#FFFFFF" d="M 100.05161,154.39062 C 81.17673,145.91167 74.09865,136.47423 74.09865,124.16132 74.09865,110.00516 85.89545,98.208361 104.77033,98.650741 121.28585,99.093121 134.04114,108.08818 143.0362,129.32242 L 197.30148,105.21271 C 182.18683,66.504461 151.51515,43.869351 101.96859,43.869351 49.54656,43.869351 10.83831,78.374991 10.83831,124.6037 10.83831,156.23387 26.39534,181.22834 63.26034,199.66084 L 103.88557,219.93659 C 126.52068,231.29101 137.43272,239.76996 137.43272,256.28548 137.43272,274.20187 122.83418,286.95716 103.88557,286.95716 83.60982,286.95716 65.17732,275.60274 56.69837,250.16589 L 0,266.75514 C 13.19767,314.45845 52.42203,342.32839 103.36946,342.32839 158.59323,342.32839 201.06171,306.93799 201.06171,255.91683 201.06171,216.7662 179.82747,190.73951 139.20224,172.38074 Z" id="path960" />

</svg>
